<svg width="1200" height="630" viewBox="0 0 1200 630" fill="none" xmlns="http://www.w3.org/2000/svg">
  <rect width="1200" height="630" fill="#F8FAFC"/>
  <rect x="52" y="48" width="1096" height="534" rx="32" fill="#FFFFFF" stroke="#CCFBF1" stroke-width="2"/>

  <g transform="translate(88 76)">
    <image href="../logo-svg/osteoplus-logo-primary-teal.svg" width="238" height="80" preserveAspectRatio="xMinYMid meet"/>
    <text x="0" y="156" font-family="Inter, Arial, sans-serif" font-size="18" font-weight="800" letter-spacing="3" fill="#0D9488">UX CASE STUDY</text>
    <text x="0" y="222" font-family="Merriweather, Georgia, serif" font-size="56" font-weight="700" fill="#0F172A">From medical</text>
    <text x="0" y="288" font-family="Merriweather, Georgia, serif" font-size="56" font-weight="700" fill="#0F172A">repository to</text>
    <text x="0" y="354" font-family="Merriweather, Georgia, serif" font-size="56" font-weight="700" fill="#0F766E">Action Dashboard</text>
    <text x="0" y="410" font-family="Inter, Arial, sans-serif" font-size="24" font-weight="500" fill="#475569">Senior-friendly rehab PWA for booking, adherence,</text>
    <text x="0" y="442" font-family="Inter, Arial, sans-serif" font-size="24" font-weight="500" fill="#475569">accessibility, and bilingual care workflows.</text>
    <g transform="translate(0 486)">
      <rect width="138" height="38" rx="19" fill="#F0FDFA" stroke="#99F6E4"/>
      <text x="22" y="25" font-family="Inter, Arial, sans-serif" font-size="15" font-weight="700" fill="#0F766E">WCAG 2.2 AA</text>
      <rect x="158" width="132" height="38" rx="19" fill="#FFF7ED" stroke="#FDBA74"/>
      <text x="180" y="25" font-family="Inter, Arial, sans-serif" font-size="15" font-weight="700" fill="#C2410C">ES / EN</text>
      <rect x="310" width="188" height="38" rx="19" fill="#F8FAFC" stroke="#CBD5E1"/>
      <text x="332" y="25" font-family="Inter, Arial, sans-serif" font-size="15" font-weight="700" fill="#334155">Edgar Bonilla G.</text>
    </g>
  </g>

  <g transform="translate(765 78)">
    <rect x="-34" y="20" width="336" height="482" rx="48" fill="#CCFBF1" opacity="0.6"/>
    <rect x="0" y="0" width="268" height="500" rx="44" fill="#0F172A"/>
    <rect x="12" y="14" width="244" height="472" rx="34" fill="#FFFFFF"/>
    <rect x="92" y="28" width="84" height="20" rx="10" fill="#0F172A"/>

    <rect x="30" y="70" width="208" height="82" rx="18" fill="#F0FDFA" stroke="#99F6E4"/>
    <text x="50" y="101" font-family="Inter, Arial, sans-serif" font-size="14" font-weight="800" fill="#0F766E">TODAY</text>
    <text x="50" y="128" font-family="Inter, Arial, sans-serif" font-size="18" font-weight="800" fill="#0F172A">Daily Rehab Loop</text>

    <rect x="30" y="174" width="208" height="118" rx="18" fill="#FFFFFF" stroke="#E2E8F0"/>
    <circle cx="58" cy="210" r="12" fill="#14B8A6"/>
    <rect x="80" y="202" width="122" height="12" rx="6" fill="#0F172A"/>
    <rect x="80" y="224" width="88" height="8" rx="4" fill="#94A3B8"/>
    <circle cx="58" cy="258" r="12" fill="none" stroke="#CBD5E1" stroke-width="3"/>
    <rect x="80" y="250" width="132" height="12" rx="6" fill="#334155"/>
    <rect x="80" y="272" width="72" height="8" rx="4" fill="#94A3B8"/>

    <rect x="30" y="318" width="208" height="80" rx="18" fill="#FFF7ED" stroke="#FDBA74"/>
    <text x="50" y="350" font-family="Inter, Arial, sans-serif" font-size="15" font-weight="800" fill="#C2410C">PAIN CHECK</text>
    <rect x="50" y="366" width="164" height="12" rx="6" fill="#FED7AA"/>
    <circle cx="136" cy="372" r="18" fill="#EA580C"/>

    <rect x="30" y="424" width="208" height="42" rx="14" fill="#0F766E"/>
    <text x="73" y="451" font-family="Inter, Arial, sans-serif" font-size="16" font-weight="800" fill="#FFFFFF">Book follow-up</text>
  </g>
</svg>
